<svg width="24" height="24" viewBox="0 0 24 24" fill="none" xmlns="http://www.w3.org/2000/svg">
<g clip-path="url(#clip0_51_493)">
<path d="M20.9343 15.8991C20.8781 15.7705 20.7872 15.6602 20.6718 15.5803C19.0809 14.4872 18.75 12.6225 18.75 11.25C18.75 9.59344 20.0128 8.15063 20.7656 7.43719C20.8396 7.3671 20.8986 7.28265 20.9389 7.189C20.9792 7.09535 21 6.99446 21 6.8925C21 6.79054 20.9792 6.68966 20.9389 6.59601C20.8986 6.50235 20.8396 6.4179 20.7656 6.34781C19.5768 5.22563 17.6081 4.5 15.75 4.5C14.4152 4.50103 13.1105 4.89667 12 5.63719C10.7045 4.76847 9.14672 4.37832 7.59467 4.53385C6.04262 4.68938 4.59328 5.38086 3.4959 6.48938C2.83987 7.15912 2.32514 7.95387 1.98226 8.82643C1.63939 9.69899 1.47538 10.6316 1.49997 11.5688C1.53708 13.1506 1.88897 14.7092 2.53508 16.1535C3.18119 17.5978 4.10858 18.899 5.26309 19.9809C5.95853 20.638 6.87979 21.0028 7.83653 21H16.0565C16.568 21.001 17.0742 20.8969 17.5439 20.6942C18.0135 20.4915 18.4364 20.1945 18.7865 19.8216C19.4351 19.1236 19.9961 18.3491 20.4572 17.5153C21.1153 16.3125 21.0309 16.125 20.9343 15.8991ZM17.6878 18.7997C17.4784 19.022 17.2256 19.1989 16.9449 19.3194C16.6643 19.4398 16.3619 19.5013 16.0565 19.5H7.83653C7.2635 19.5018 6.71169 19.2833 6.29528 18.8897C5.28472 17.9436 4.47283 16.8056 3.90703 15.5421C3.34123 14.2787 3.03287 12.9152 2.99997 11.5313C2.97946 10.7959 3.10708 10.064 3.37524 9.37903C3.6434 8.69405 4.04662 8.07002 4.5609 7.54406C5.04139 7.05319 5.61542 6.66363 6.24906 6.39842C6.88269 6.13321 7.56307 5.99773 8.24996 6H8.32309C9.49146 6.01231 10.6216 6.41787 11.5312 7.15125C11.6642 7.25775 11.8296 7.31578 12 7.31578C12.1704 7.31578 12.3357 7.25775 12.4687 7.15125C13.3978 6.40215 14.5565 5.99563 15.75 6C16.9418 6.01383 18.1078 6.34906 19.125 6.97031C17.9062 8.33156 17.25 9.82688 17.25 11.25C17.25 13.4784 17.9662 15.2559 19.3293 16.4344C18.9001 17.2984 18.3471 18.0953 17.6878 18.7997ZM12.0215 2.8125C12.2295 2.00692 12.6995 1.29338 13.3575 0.784213C14.0156 0.275046 14.8242 -0.000833469 15.6562 1.89152e-06H15.75C15.9489 1.89152e-06 16.1396 0.0790195 16.2803 0.219672C16.4209 0.360324 16.5 0.55109 16.5 0.750002C16.5 0.948914 16.4209 1.13968 16.2803 1.28033C16.1396 1.42098 15.9489 1.5 15.75 1.5H15.6562C15.1574 1.49996 14.6726 1.6657 14.2783 1.97116C13.8839 2.27662 13.6022 2.70449 13.4775 3.1875C13.4277 3.3802 13.3035 3.54525 13.1321 3.64634C12.9607 3.74744 12.7561 3.77629 12.5634 3.72656C12.3707 3.67684 12.2057 3.5526 12.1046 3.38118C12.0035 3.20976 11.9746 3.0052 12.0243 2.8125H12.0215Z" fill="black"/>
</g>
<defs>
<clipPath id="clip0_51_493">
<rect width="24" height="24" fill="white"/>
</clipPath>
</defs>
</svg>
