<svg width="128" height="128" viewBox="0 0 128 128" fill="none" xmlns="http://www.w3.org/2000/svg">
<path d="M63.6001 118.8C35.7001 118.8 5.6001 101.3 5.6001 62.9C5.6001 24.5 35.7001 7 63.6001 7C79.1001 7 93.4001 12.1 104 21.4C115.5 31.6 121.6 46 121.6 62.9C121.6 79.8 115.5 94.1 104 104.3C93.4001 113.6 79.0001 118.8 63.6001 118.8Z" fill="url(#paint0_radial_326_1180)"/>
<path d="M102.07 71.6199C100.74 69.1599 97.93 68.0899 94.93 69.0199C85.97 71.8199 74.46 73.4399 63.34 73.4499C52.22 73.4399 40.71 71.8199 31.75 69.0199C28.76 68.0899 25.94 69.1599 24.61 71.6199C23.25 74.1399 24.24 77.0399 25.38 79.5599C31.8 93.6599 45.95 102.1 63.25 102.15H63.41C80.71 102.1 94.86 93.6599 101.28 79.5599C102.44 77.0399 103.43 74.1299 102.07 71.6199Z" fill="#35220B"/>
<path d="M79.35 98.14C78.98 97.8 78.6 97.49 78.22 97.17C74.07 93.7 69.53 91.76 63.42 91.76C57.33 91.76 52.26 93.56 47.96 96.98C47.57 97.29 47.18 97.59 46.8 97.92C46.49 98.27 46.23 98.6 46 98.92C51.21 100.99 57.03 102.12 63.27 102.14H63.43C69.39 102.12 74.97 101.09 80 99.19C79.82 98.85 79.61 98.51 79.35 98.14Z" fill="#ED7770"/>
<path d="M94.9299 69.02C85.9699 71.82 74.4599 73.44 63.3399 73.45C52.2199 73.44 40.7099 71.82 31.7499 69.02C28.7599 68.09 25.9399 69.16 24.6099 71.62C24.3999 72.01 24.2599 72.41 24.1599 72.82C24.4899 72.99 24.8699 73.16 25.3199 73.34C37.4199 79.51 50.4799 82.27 64.1199 82.27C77.2099 82.27 89.7599 79.72 101.45 74.06C101.92 73.86 102.31 73.67 102.66 73.49C102.57 72.85 102.39 72.23 102.06 71.62C100.74 69.16 97.9299 68.08 94.9299 69.02Z" fill="white"/>
<path d="M62.84 75.06C71.01 75.2 77.66 73.96 85.74 72.42C87.76 72.03 89.77 71.58 91.76 71.05L93.25 70.64C93.7 70.52 94.04 70.44 94.44 70.41C95.2 70.34 95.94 70.45 96.58 70.72C97.85 71.25 99.66 72.85 100.11 74.13C101.3 77.53 99.37 83.47 99.85 82.48C99.87 82.45 101.08 80.41 101.09 80.38C101.9 78.43 102.96 76.22 102.7 73.55C102.43 70.86 100.4 68.39 97.87 67.46C96.6502 67.0095 95.3377 66.8686 94.05 67.05C93.44 67.12 92.79 67.3 92.28 67.47L90.87 67.93C88.98 68.51 87.06 69.03 85.12 69.49C77.36 71.3 70.96 72.25 62.94 72.45H62.7C54.68 72.26 48.67 71.3 40.91 69.49C38.97 69.03 37.05 68.51 35.16 67.93L33.75 67.47C33.23 67.3 32.59 67.12 31.98 67.05C30.74 66.88 29.4 66.99 28.16 67.46C25.63 68.39 23.85 70.85 23.49 73.53C22.91 77.91 26.88 82.62 26.9 82.65C27.38 83.64 24.89 77.51 26.08 74.11C26.53 72.83 28.18 71.25 29.44 70.72C30.08 70.45 30.81 70.33 31.58 70.41C31.98 70.44 32.31 70.52 32.77 70.64L34.26 71.05C36.26 71.58 38.27 72.03 40.28 72.42C48.35 73.95 54.44 75.19 62.61 75.06" fill="#EB8F00"/>
<path d="M125.75 33.3299C125.75 33.3299 124.72 31.5499 105.59 29.7699C80.1199 27.3999 70.9799 34.4799 69.2599 36.0799L69.0799 36.0699C67.1699 35.9499 65.3599 35.8299 63.3599 35.8299H63.2699C62.2899 35.8399 60.3399 35.9399 58.6799 36.0399C56.8399 34.3499 47.6399 27.4199 22.3999 29.7699C3.27988 31.5499 2.24988 33.3299 2.24988 33.3299L2.12988 40.5499C2.12988 40.5499 4.97988 41.3599 6.82988 43.6499C8.66988 45.9099 9.52988 58.5699 12.5199 64.5199C17.1499 73.7599 40.1699 71.4199 40.1699 71.4199C40.1699 71.4199 49.5599 72.1599 54.1399 64.2499C58.2899 57.0999 59.8299 47.0799 60.0799 45.2499C61.0299 44.6999 62.2699 44.2699 63.8499 44.2499C65.6199 44.2699 66.9699 44.8099 67.9599 45.4499C68.2899 47.7099 69.8599 57.3299 73.8699 64.2399C78.4499 72.1399 87.8399 71.4099 87.8399 71.4099C87.8399 71.4099 110.86 73.7499 115.49 64.5099C118.48 58.5499 119.34 45.8999 121.18 43.6399C123.02 41.3499 125.88 40.5399 125.88 40.5399L125.75 33.3299ZM52.3499 53.2499C50.5299 61.6899 48.2399 67.4399 32.6299 66.5499C22.5799 65.9799 15.5899 65.9999 13.9799 51.3399C12.9899 42.2299 14.0899 38.7899 14.8399 37.6899C15.5799 36.5999 18.2699 33.4399 33.8199 33.9899C49.3699 34.5399 51.5999 38.0299 52.5099 39.6099C52.5499 39.6699 52.5799 39.7399 52.6199 39.8099L53.2799 41.9899C53.6499 44.1599 53.5699 47.6399 52.3499 53.2499ZM114.02 51.3399C112.42 65.9999 105.43 65.9799 95.3799 66.5499C79.7699 67.4399 77.4799 61.6899 75.6599 53.2499C73.8299 44.8299 74.5699 41.1799 75.4899 39.6099C76.3999 38.0299 78.6299 34.5299 94.1799 33.9899C109.74 33.4399 112.42 36.5999 113.16 37.6899C113.9 38.7899 115.01 42.2299 114.02 51.3399Z" fill="#35220B"/>
<path d="M90.02 41.9399C85.83 41.9399 82.02 45.4799 82.02 51.3599C82.02 57.2399 85.83 60.7799 90.02 60.7799C94.21 60.7799 98.02 57.2399 98.02 51.3599C98.02 45.4799 94.21 41.9399 90.02 41.9399Z" fill="#35220B"/>
<path d="M89.6299 45.87C88.5999 45.15 87.0499 45.38 86.0499 46.82C85.0499 48.27 85.3799 49.79 86.4099 50.51C87.4399 51.23 88.9899 51 89.9899 49.56C90.9999 48.11 90.6699 46.59 89.6299 45.87Z" fill="#896024"/>
<path d="M90.02 41.9399C85.83 41.9399 82.02 45.4799 82.02 51.3599C82.02 57.2399 85.83 60.7799 90.02 60.7799C94.21 60.7799 98.02 57.2399 98.02 51.3599C98.02 45.4799 94.21 41.9399 90.02 41.9399Z" fill="#35220B"/>
<path d="M89.6299 45.87C88.5999 45.15 87.0499 45.38 86.0499 46.82C85.0499 48.27 85.3799 49.79 86.4099 50.51C87.4399 51.23 88.9899 51 89.9899 49.56C90.9999 48.11 90.6699 46.59 89.6299 45.87Z" fill="#896024"/>
<path d="M37.6699 41.9399C33.4799 41.9399 29.6699 45.4799 29.6699 51.3599C29.6699 57.2399 33.4799 60.7799 37.6699 60.7799C41.8599 60.7799 45.6699 57.2399 45.6699 51.3599C45.6699 45.4799 41.8599 41.9399 37.6699 41.9399Z" fill="#35220B"/>
<path d="M37.28 45.87C36.25 45.15 34.7 45.38 33.7 46.82C32.7 48.27 33.03 49.79 34.06 50.51C35.09 51.23 36.64 51 37.64 49.56C38.64 48.11 38.31 46.59 37.28 45.87Z" fill="#896024"/>
<defs>
<radialGradient id="paint0_radial_326_1180" cx="0" cy="0" r="1" gradientUnits="userSpaceOnUse" gradientTransform="translate(63.6001 62.9) scale(56.96 56.96)">
<stop offset="0.5" stop-color="#FDE030"/>
<stop offset="0.919" stop-color="#F7C02B"/>
<stop offset="1" stop-color="#F4A223"/>
</radialGradient>
</defs>
</svg>
