<svg width="100" height="100" viewBox="0 0 100 100" fill="none" xmlns="http://www.w3.org/2000/svg">
<g clip-path="url(#clip0_51_261)">
<mask id="mask0_51_261" style="mask-type:luminance" maskUnits="userSpaceOnUse" x="0" y="0" width="100" height="100">
<path d="M0 0H100V100H0V0Z" fill="white"/>
</mask>
<g mask="url(#mask0_51_261)">
<path d="M75.8187 70.15L75.3374 40.8063C75.0249 38.0188 73.4999 34.2781 68.278 34.2781C62.1843 34.5688 61.9468 40.8031 61.9468 40.8031L52.6655 24.225C50.3437 20.6938 46.5374 20.45 44.1562 21.9031C41.7718 23.3563 41.253 26.3031 41.253 26.3031L39.3218 23.7875C37.8655 21.4063 33.5155 21.1313 31.2968 22.4844C27.6124 24.7313 27.078 29.3875 29.4593 31.9594C29.303 31.7906 27.4843 31.1594 24.4312 33.0219C22.0499 34.475 21.3124 38.8219 22.6437 41.2875C23.9718 43.7563 24.1655 44.1406 24.1655 44.1406C24.1655 44.1406 22.1124 43.1719 18.8718 45.35C16.5562 46.9063 15.7249 51.525 17.1812 53.9063L24.9812 67.0594L35.7155 84.6C42.028 93.5469 55.4843 96.6344 65.2624 90.6938C71.9312 86.6438 76.453 78.0875 75.8187 70.15Z" fill="#FF9D25"/>
<path d="M75.8187 70.15L75.3374 40.8063C75.0249 38.0188 73.4999 34.2781 68.278 34.2781C62.1843 34.5688 61.9468 40.8031 61.9468 40.8031L52.6655 24.225C50.3437 20.6938 46.5374 20.45 44.1562 21.9031C41.7718 23.3563 41.253 26.3031 41.253 26.3031L39.3218 23.7875C37.8655 21.4063 33.5155 21.1313 31.2968 22.4844C27.6124 24.7313 27.078 29.3875 29.4593 31.9594C29.303 31.7906 27.4843 31.1594 24.4312 33.0219C22.0499 34.475 21.3124 38.8219 22.6437 41.2875C23.9718 43.7563 24.1655 44.1406 24.1655 44.1406C24.1655 44.1406 22.1124 43.1719 18.8718 45.35C16.5562 46.9063 15.7249 51.525 17.1812 53.9063L24.9812 67.0594L35.7155 84.6C42.028 93.5469 55.4843 96.6344 65.2624 90.6938C71.9312 86.6438 76.453 78.0875 75.8187 70.15Z" fill="url(#paint0_linear_51_261)"/>
<path d="M75.8187 70.15L75.3374 40.8063C75.0249 38.0188 73.4999 34.2781 68.278 34.2781C62.1843 34.5688 61.9468 40.8031 61.9468 40.8031L52.6655 24.225C50.3437 20.6938 46.5374 20.45 44.1562 21.9031C41.7718 23.3563 41.253 26.3031 41.253 26.3031L39.3218 23.7875C37.8655 21.4063 33.5155 21.1313 31.2968 22.4844C27.6124 24.7313 27.078 29.3875 29.4593 31.9594C29.303 31.7906 27.4843 31.1594 24.4312 33.0219C22.0499 34.475 21.3124 38.8219 22.6437 41.2875C23.9718 43.7563 24.1655 44.1406 24.1655 44.1406C24.1655 44.1406 22.1124 43.1719 18.8718 45.35C16.5562 46.9063 15.7249 51.525 17.1812 53.9063L24.9812 67.0594L35.7155 84.6C42.028 93.5469 55.4843 96.6344 65.2624 90.6938C71.9312 86.6438 76.453 78.0875 75.8187 70.15Z" fill="url(#paint1_radial_51_261)"/>
<path d="M75.8187 70.15L75.3374 40.8063C75.0249 38.0188 73.4999 34.2781 68.278 34.2781C62.1843 34.5688 61.9468 40.8031 61.9468 40.8031L52.6655 24.225C50.3437 20.6938 46.5374 20.45 44.1562 21.9031C41.7718 23.3563 41.253 26.3031 41.253 26.3031L39.3218 23.7875C37.8655 21.4063 33.5155 21.1313 31.2968 22.4844C27.6124 24.7313 27.078 29.3875 29.4593 31.9594C29.303 31.7906 27.4843 31.1594 24.4312 33.0219C22.0499 34.475 21.3124 38.8219 22.6437 41.2875C23.9718 43.7563 24.1655 44.1406 24.1655 44.1406C24.1655 44.1406 22.1124 43.1719 18.8718 45.35C16.5562 46.9063 15.7249 51.525 17.1812 53.9063L24.9812 67.0594L35.7155 84.6C42.028 93.5469 55.4843 96.6344 65.2624 90.6938C71.9312 86.6438 76.453 78.0875 75.8187 70.15Z" fill="url(#paint2_radial_51_261)"/>
<path d="M75.8187 70.15L75.3374 40.8063C75.0249 38.0188 73.4999 34.2781 68.278 34.2781C62.1843 34.5688 61.9468 40.8031 61.9468 40.8031L52.6655 24.225C50.3437 20.6938 46.5374 20.45 44.1562 21.9031C41.7718 23.3563 41.253 26.3031 41.253 26.3031L39.3218 23.7875C37.8655 21.4063 33.5155 21.1313 31.2968 22.4844C27.6124 24.7313 27.078 29.3875 29.4593 31.9594C29.303 31.7906 27.4843 31.1594 24.4312 33.0219C22.0499 34.475 21.3124 38.8219 22.6437 41.2875C23.9718 43.7563 24.1655 44.1406 24.1655 44.1406C24.1655 44.1406 22.1124 43.1719 18.8718 45.35C16.5562 46.9063 15.7249 51.525 17.1812 53.9063L24.9812 67.0594L35.7155 84.6C42.028 93.5469 55.4843 96.6344 65.2624 90.6938C71.9312 86.6438 76.453 78.0875 75.8187 70.15Z" fill="url(#paint3_radial_51_261)"/>
<path d="M75.8187 70.15L75.3374 40.8063C75.0249 38.0188 73.4999 34.2781 68.278 34.2781C62.1843 34.5688 61.9468 40.8031 61.9468 40.8031L52.6655 24.225C50.3437 20.6938 46.5374 20.45 44.1562 21.9031C41.7718 23.3563 41.253 26.3031 41.253 26.3031L39.3218 23.7875C37.8655 21.4063 33.5155 21.1313 31.2968 22.4844C27.6124 24.7313 27.078 29.3875 29.4593 31.9594C29.303 31.7906 27.4843 31.1594 24.4312 33.0219C22.0499 34.475 21.3124 38.8219 22.6437 41.2875C23.9718 43.7563 24.1655 44.1406 24.1655 44.1406C24.1655 44.1406 22.1124 43.1719 18.8718 45.35C16.5562 46.9063 15.7249 51.525 17.1812 53.9063L24.9812 67.0594L35.7155 84.6C42.028 93.5469 55.4843 96.6344 65.2624 90.6938C71.9312 86.6438 76.453 78.0875 75.8187 70.15Z" fill="url(#paint4_radial_51_261)"/>
<path d="M75.8187 70.15L75.3374 40.8063C75.0249 38.0188 73.4999 34.2781 68.278 34.2781C62.1843 34.5688 61.9468 40.8031 61.9468 40.8031L52.6655 24.225C50.3437 20.6938 46.5374 20.45 44.1562 21.9031C41.7718 23.3563 41.253 26.3031 41.253 26.3031L39.3218 23.7875C37.8655 21.4063 33.5155 21.1313 31.2968 22.4844C27.6124 24.7313 27.078 29.3875 29.4593 31.9594C29.303 31.7906 27.4843 31.1594 24.4312 33.0219C22.0499 34.475 21.3124 38.8219 22.6437 41.2875C23.9718 43.7563 24.1655 44.1406 24.1655 44.1406C24.1655 44.1406 22.1124 43.1719 18.8718 45.35C16.5562 46.9063 15.7249 51.525 17.1812 53.9063L24.9812 67.0594L35.7155 84.6C42.028 93.5469 55.4843 96.6344 65.2624 90.6938C71.9312 86.6438 76.453 78.0875 75.8187 70.15Z" fill="url(#paint5_radial_51_261)"/>
<path d="M75.8187 70.15L75.3374 40.8063C75.0249 38.0188 73.4999 34.2781 68.278 34.2781C62.1843 34.5688 61.9468 40.8031 61.9468 40.8031L52.6655 24.225C50.3437 20.6938 46.5374 20.45 44.1562 21.9031C41.7718 23.3563 41.253 26.3031 41.253 26.3031L39.3218 23.7875C37.8655 21.4063 33.5155 21.1313 31.2968 22.4844C27.6124 24.7313 27.078 29.3875 29.4593 31.9594C29.303 31.7906 27.4843 31.1594 24.4312 33.0219C22.0499 34.475 21.3124 38.8219 22.6437 41.2875C23.9718 43.7563 24.1655 44.1406 24.1655 44.1406C24.1655 44.1406 22.1124 43.1719 18.8718 45.35C16.5562 46.9063 15.7249 51.525 17.1812 53.9063L24.9812 67.0594L35.7155 84.6C42.028 93.5469 55.4843 96.6344 65.2624 90.6938C71.9312 86.6438 76.453 78.0875 75.8187 70.15Z" fill="url(#paint6_radial_51_261)"/>
<path d="M75.8187 70.15L75.3374 40.8063C75.0249 38.0188 73.4999 34.2781 68.278 34.2781C62.1843 34.5688 61.9468 40.8031 61.9468 40.8031L52.6655 24.225C50.3437 20.6938 46.5374 20.45 44.1562 21.9031C41.7718 23.3563 41.253 26.3031 41.253 26.3031L39.3218 23.7875C37.8655 21.4063 33.5155 21.1313 31.2968 22.4844C27.6124 24.7313 27.078 29.3875 29.4593 31.9594C29.303 31.7906 27.4843 31.1594 24.4312 33.0219C22.0499 34.475 21.3124 38.8219 22.6437 41.2875C23.9718 43.7563 24.1655 44.1406 24.1655 44.1406C24.1655 44.1406 22.1124 43.1719 18.8718 45.35C16.5562 46.9063 15.7249 51.525 17.1812 53.9063L24.9812 67.0594L35.7155 84.6C42.028 93.5469 55.4843 96.6344 65.2624 90.6938C71.9312 86.6438 76.453 78.0875 75.8187 70.15Z" fill="url(#paint7_radial_51_261)"/>
<path d="M75.8187 70.15L75.3374 40.8063C75.0249 38.0188 73.4999 34.2781 68.278 34.2781C62.1843 34.5688 61.9468 40.8031 61.9468 40.8031L52.6655 24.225C50.3437 20.6938 46.5374 20.45 44.1562 21.9031C41.7718 23.3563 41.253 26.3031 41.253 26.3031L39.3218 23.7875C37.8655 21.4063 33.5155 21.1313 31.2968 22.4844C27.6124 24.7313 27.078 29.3875 29.4593 31.9594C29.303 31.7906 27.4843 31.1594 24.4312 33.0219C22.0499 34.475 21.3124 38.8219 22.6437 41.2875C23.9718 43.7563 24.1655 44.1406 24.1655 44.1406C24.1655 44.1406 22.1124 43.1719 18.8718 45.35C16.5562 46.9063 15.7249 51.525 17.1812 53.9063L24.9812 67.0594L35.7155 84.6C42.028 93.5469 55.4843 96.6344 65.2624 90.6938C71.9312 86.6438 76.453 78.0875 75.8187 70.15Z" fill="url(#paint8_radial_51_261)"/>
<path fill-rule="evenodd" clip-rule="evenodd" d="M24.0312 44.0906C23.7072 44.0191 23.3796 43.9648 23.0499 43.9281C23.5249 43.9438 23.8624 44.0313 24.0312 44.0906ZM24.1562 44.1156L24.4499 44.1906C25.4687 44.4625 26.4062 44.8937 27.0374 45.4562C27.3562 45.7375 27.8343 46.3156 28.4499 47.1906C29.0499 48.0375 29.7093 49.0656 30.3937 50.1688C30.9499 51.0625 31.5249 52.0156 32.0874 52.95C32.8843 54.2688 33.653 55.5375 34.2843 56.5125C34.5093 56.8606 34.8634 57.105 35.2686 57.1921C35.6739 57.2791 36.0971 57.2016 36.4452 56.9766C36.7933 56.7515 37.0378 56.3975 37.1248 55.9922C37.2118 55.587 37.1343 55.1637 36.9093 54.8156C36.1939 53.6915 35.4949 52.557 34.8124 51.4125C34.2499 50.4781 33.6562 49.4969 33.0499 48.5219C32.3983 47.4591 31.7168 46.4149 31.0062 45.3906C30.3749 44.4969 29.7218 43.6594 29.1155 43.1188C27.9905 42.1188 26.5405 41.5125 25.2562 41.1719C24.3243 40.9199 23.365 40.7835 22.3999 40.7656C22.4704 40.9444 22.5518 41.1187 22.6437 41.2875C23.7999 43.4344 24.0999 44.0062 24.1562 44.1156Z" fill="url(#paint9_radial_51_261)"/>
<path fill-rule="evenodd" clip-rule="evenodd" d="M29.3062 31.8719C29.0744 31.8079 28.8384 31.7598 28.6 31.7281C28.8412 31.7408 29.0793 31.7892 29.3062 31.8719ZM29.4062 31.9C30.2812 32.1562 31.3281 32.6875 32.5063 33.7375C32.5969 33.8156 32.8062 34.05 33.1406 34.5219C33.4531 34.9656 33.8281 35.5344 34.2406 36.2094C35.0719 37.5531 36.0375 39.2406 37.0219 41.0031C37.5437 41.9281 38.0719 42.8781 38.5844 43.8094C40.0031 46.3656 41.3313 48.7625 42.1469 50.0188C42.2546 50.1988 42.3975 50.3553 42.567 50.4789C42.7366 50.6025 42.9293 50.6907 43.1336 50.7382C43.3379 50.7857 43.5498 50.7916 43.7565 50.7555C43.9631 50.7194 44.1604 50.6421 44.3365 50.5281C44.5127 50.4141 44.664 50.2658 44.7816 50.092C44.8992 49.9183 44.9806 49.7226 45.0209 49.5167C45.0613 49.3108 45.0597 49.0989 45.0164 48.8936C44.9731 48.6884 44.8889 48.4939 44.7687 48.3219C44.0188 47.1594 42.7781 44.9281 41.3906 42.4219L39.75 39.475C38.8326 37.8208 37.8825 36.1851 36.9 34.5687C36.5163 33.9369 36.1119 33.3178 35.6875 32.7125C35.3673 32.2372 34.9975 31.7972 34.5844 31.4C32.0969 29.1906 29.8031 28.5781 28.0312 28.5625C28.1156 29.8 28.5781 30.9781 29.4062 31.9Z" fill="url(#paint10_radial_51_261)"/>
<path fill-rule="evenodd" clip-rule="evenodd" d="M41.2563 26.3L41.5407 26.7625L45.4876 33.1C47.8978 36.9865 50.3281 40.8605 52.7782 44.7219C53.006 45.0642 53.3596 45.3029 53.7622 45.3862C54.1648 45.4696 54.5841 45.3909 54.9291 45.1672C55.274 44.9435 55.517 44.5929 55.6051 44.1913C55.6933 43.7897 55.6196 43.3695 55.4001 43.0219C52.9596 39.177 50.5387 35.3196 48.1376 31.45L44.197 25.1125L42.947 23.0969L42.8751 22.9875C42.0726 23.9426 41.5167 25.08 41.2563 26.3Z" fill="url(#paint11_radial_51_261)"/>
<g filter="url(#filter0_f_51_261)">
<path fill-rule="evenodd" clip-rule="evenodd" d="M72.353 42.7188L72.7967 69.725C73.3811 77.0313 69.2186 84.9063 63.0811 88.6344C61.9249 89.3375 60.7092 89.9031 59.4624 90.3375C52.7311 90.4063 46.0155 87.2938 42.1624 81.8344L34.5405 71.4469L29.578 62.8375C28.228 60.6219 28.9999 56.3281 31.153 54.8813C34.1624 52.8594 36.0717 53.7594 36.0717 53.7594C36.0717 53.7594 33.603 49.7875 32.3686 47.4938C31.1311 45.2031 31.7936 41.7094 34.0092 40.3563C36.8467 38.625 39.1624 40.6625 39.3061 40.8219C37.4499 38.3063 37.2999 32.6563 40.7217 30.5656C42.7842 29.3063 46.5186 29.0125 47.8717 31.2281L49.6686 33.5656C49.6686 33.5656 50.1499 30.825 52.3655 29.4719L52.553 29.3656L60.028 42.7219C60.028 42.7219 60.1842 38.7719 63.4342 37.275L68.903 47.0438C68.903 47.0438 69.0499 43.2 72.1655 41.625C72.253 42 72.3124 42.3688 72.353 42.7188Z" fill="#F06B0C"/>
</g>
<path d="M93.6032 69.9125V40.2719C93.2907 37.4594 91.2595 33.6781 85.9876 33.6781C79.8314 33.975 79.5907 40.2719 79.5907 40.2719L70.2157 23.5219C67.872 19.9594 64.0282 19.7094 61.622 21.1781C59.2157 22.6469 58.6876 25.625 58.6876 25.625L56.7345 23.0844C55.2657 20.6781 50.872 20.3969 48.6314 21.7656C44.9095 24.0375 44.3689 28.7406 46.7751 31.3375C46.6189 31.1656 43.9251 30.825 41.697 32.4125C39.2126 34.1813 38.547 38.2719 39.8907 40.7594C41.2345 43.25 41.4282 43.6406 41.4282 43.6406C41.4282 43.6406 39.3532 42.6656 36.0814 44.8625C33.7407 46.4344 32.9032 51.1 34.372 53.5063L42.2501 66.7875L53.0939 84.5063C59.4689 93.5438 73.0626 96.6625 82.9376 90.6625C89.672 86.575 94.2439 77.9281 93.6032 69.9125Z" fill="#FFC03C"/>
<path d="M93.6032 69.9125V40.2719C93.2907 37.4594 91.2595 33.6781 85.9876 33.6781C79.8314 33.975 79.5907 40.2719 79.5907 40.2719L70.2157 23.5219C67.872 19.9594 64.0282 19.7094 61.622 21.1781C59.2157 22.6469 58.6876 25.625 58.6876 25.625L56.7345 23.0844C55.2657 20.6781 50.872 20.3969 48.6314 21.7656C44.9095 24.0375 44.3689 28.7406 46.7751 31.3375C46.6189 31.1656 43.9251 30.825 41.697 32.4125C39.2126 34.1813 38.547 38.2719 39.8907 40.7594C41.2345 43.25 41.4282 43.6406 41.4282 43.6406C41.4282 43.6406 39.3532 42.6656 36.0814 44.8625C33.7407 46.4344 32.9032 51.1 34.372 53.5063L42.2501 66.7875L53.0939 84.5063C59.4689 93.5438 73.0626 96.6625 82.9376 90.6625C89.672 86.575 94.2439 77.9281 93.6032 69.9125Z" fill="url(#paint12_radial_51_261)"/>
<path d="M93.6032 69.9125V40.2719C93.2907 37.4594 91.2595 33.6781 85.9876 33.6781C79.8314 33.975 79.5907 40.2719 79.5907 40.2719L70.2157 23.5219C67.872 19.9594 64.0282 19.7094 61.622 21.1781C59.2157 22.6469 58.6876 25.625 58.6876 25.625L56.7345 23.0844C55.2657 20.6781 50.872 20.3969 48.6314 21.7656C44.9095 24.0375 44.3689 28.7406 46.7751 31.3375C46.6189 31.1656 43.9251 30.825 41.697 32.4125C39.2126 34.1813 38.547 38.2719 39.8907 40.7594C41.2345 43.25 41.4282 43.6406 41.4282 43.6406C41.4282 43.6406 39.3532 42.6656 36.0814 44.8625C33.7407 46.4344 32.9032 51.1 34.372 53.5063L42.2501 66.7875L53.0939 84.5063C59.4689 93.5438 73.0626 96.6625 82.9376 90.6625C89.672 86.575 94.2439 77.9281 93.6032 69.9125Z" fill="url(#paint13_radial_51_261)"/>
<path d="M93.6032 69.9125V40.2719C93.2907 37.4594 91.2595 33.6781 85.9876 33.6781C79.8314 33.975 79.5907 40.2719 79.5907 40.2719L70.2157 23.5219C67.872 19.9594 64.0282 19.7094 61.622 21.1781C59.2157 22.6469 58.6876 25.625 58.6876 25.625L56.7345 23.0844C55.2657 20.6781 50.872 20.3969 48.6314 21.7656C44.9095 24.0375 44.3689 28.7406 46.7751 31.3375C46.6189 31.1656 43.9251 30.825 41.697 32.4125C39.2126 34.1813 38.547 38.2719 39.8907 40.7594C41.2345 43.25 41.4282 43.6406 41.4282 43.6406C41.4282 43.6406 39.3532 42.6656 36.0814 44.8625C33.7407 46.4344 32.9032 51.1 34.372 53.5063L42.2501 66.7875L53.0939 84.5063C59.4689 93.5438 73.0626 96.6625 82.9376 90.6625C89.672 86.575 94.2439 77.9281 93.6032 69.9125Z" fill="url(#paint14_radial_51_261)"/>
<path d="M85.9877 33.6812C79.8314 33.975 79.5908 40.275 79.5908 40.275L85.4502 49.9C85.4502 49.9 82.3721 41.1625 85.9877 33.6812Z" fill="url(#paint15_linear_51_261)"/>
<g filter="url(#filter1_f_51_261)">
<path d="M92.7751 71.0937L91.0157 43.1156C90.7345 40.5844 89.9032 34.9594 85.1563 34.9594L84.1782 51.075L76.6595 39.2562L69.0438 25.7812C67.6688 23.6937 66.747 23.3875 65.6751 23.1437C64.6001 22.9 61.4251 22.9 62.1095 24.0719C62.7938 25.2437 70.7032 37.0594 73.5845 41.9906C74.6563 43.8312 70.3063 46.9719 68.6532 44.6281C66.997 42.2844 55.372 25 55.372 25C54.0501 22.8344 49.4126 21.9937 49.4126 24.0719C49.4126 26.1812 60.5438 39.8969 63.0376 46.6781C64.0313 49.3812 60.3345 51.1656 58.9845 49.0719C57.6345 46.9781 51.9532 37.5969 49.122 33.7906C48.1438 32.475 45.297 30.9906 44.3376 32.1781C42.472 34.4875 44.6407 37.9437 45.8501 40.1844C46.4751 41.3406 53.5657 52.0094 56.3501 56.7875C57.7001 59.1094 52.8813 61.2781 51.6126 59.6687C50.3407 58.0562 46.9595 50.7844 43.7501 46.6781C42.1688 44.6562 38.9595 44.7562 37.9876 45.4094C35.8813 46.825 37.6813 50.5281 39.0032 52.6906C45.2095 64.0906 64.647 100.253 82.422 89.4531C88.4845 85.7719 93.3501 78.3094 92.7751 71.0937Z" fill="url(#paint16_radial_51_261)"/>
</g>
<path d="M17.7878 20.125L11.9753 17.6875C11.765 17.602 11.5789 17.466 11.4334 17.2916C11.288 17.1172 11.1877 16.9097 11.1414 16.6874C11.0951 16.4651 11.1042 16.2348 11.1679 16.0168C11.2315 15.7989 11.3479 15.5999 11.5066 15.4375L14.5378 12.2187C14.6936 12.0543 14.8869 11.9299 15.1011 11.8562C15.3153 11.7825 15.5441 11.7617 15.7681 11.7954C15.9921 11.8292 16.2047 11.9166 16.3876 12.0501C16.5706 12.1837 16.7186 12.3594 16.8191 12.5625L19.6003 18.2187C20.1316 19.375 18.9753 20.625 17.7878 20.125Z" fill="#1A80EA"/>
<path d="M17.7878 20.125L11.9753 17.6875C11.765 17.602 11.5789 17.466 11.4334 17.2916C11.288 17.1172 11.1877 16.9097 11.1414 16.6874C11.0951 16.4651 11.1042 16.2348 11.1679 16.0168C11.2315 15.7989 11.3479 15.5999 11.5066 15.4375L14.5378 12.2187C14.6936 12.0543 14.8869 11.9299 15.1011 11.8562C15.3153 11.7825 15.5441 11.7617 15.7681 11.7954C15.9921 11.8292 16.2047 11.9166 16.3876 12.0501C16.5706 12.1837 16.7186 12.3594 16.8191 12.5625L19.6003 18.2187C20.1316 19.375 18.9753 20.625 17.7878 20.125Z" fill="url(#paint17_linear_51_261)"/>
<path d="M17.7878 20.125L11.9753 17.6875C11.765 17.602 11.5789 17.466 11.4334 17.2916C11.288 17.1172 11.1877 16.9097 11.1414 16.6874C11.0951 16.4651 11.1042 16.2348 11.1679 16.0168C11.2315 15.7989 11.3479 15.5999 11.5066 15.4375L14.5378 12.2187C14.6936 12.0543 14.8869 11.9299 15.1011 11.8562C15.3153 11.7825 15.5441 11.7617 15.7681 11.7954C15.9921 11.8292 16.2047 11.9166 16.3876 12.0501C16.5706 12.1837 16.7186 12.3594 16.8191 12.5625L19.6003 18.2187C20.1316 19.375 18.9753 20.625 17.7878 20.125Z" fill="url(#paint18_linear_51_261)"/>
<path d="M17.7878 20.125L11.9753 17.6875C11.765 17.602 11.5789 17.466 11.4334 17.2916C11.288 17.1172 11.1877 16.9097 11.1414 16.6874C11.0951 16.4651 11.1042 16.2348 11.1679 16.0168C11.2315 15.7989 11.3479 15.5999 11.5066 15.4375L14.5378 12.2187C14.6936 12.0543 14.8869 11.9299 15.1011 11.8562C15.3153 11.7825 15.5441 11.7617 15.7681 11.7954C15.9921 11.8292 16.2047 11.9166 16.3876 12.0501C16.5706 12.1837 16.7186 12.3594 16.8191 12.5625L19.6003 18.2187C20.1316 19.375 18.9753 20.625 17.7878 20.125Z" fill="url(#paint19_linear_51_261)"/>
<path d="M25.1624 15.0531L21.3499 9.89375C21.2122 9.70771 21.1207 9.49164 21.0827 9.26331C21.0448 9.03498 21.0616 8.80092 21.1318 8.58035C21.202 8.35979 21.3235 8.15903 21.4864 7.99457C21.6492 7.83012 21.8488 7.70667 22.0687 7.63438L26.3187 6.3125C27.2562 6.02188 28.1937 6.79688 28.1312 7.79688L27.6937 14.2781C27.5687 15.6031 25.9437 16.1188 25.1624 15.0531Z" fill="#1A80EA"/>
<path d="M25.1624 15.0531L21.3499 9.89375C21.2122 9.70771 21.1207 9.49164 21.0827 9.26331C21.0448 9.03498 21.0616 8.80092 21.1318 8.58035C21.202 8.35979 21.3235 8.15903 21.4864 7.99457C21.6492 7.83012 21.8488 7.70667 22.0687 7.63438L26.3187 6.3125C27.2562 6.02188 28.1937 6.79688 28.1312 7.79688L27.6937 14.2781C27.5687 15.6031 25.9437 16.1188 25.1624 15.0531Z" fill="url(#paint20_linear_51_261)"/>
<path d="M25.1624 15.0531L21.3499 9.89375C21.2122 9.70771 21.1207 9.49164 21.0827 9.26331C21.0448 9.03498 21.0616 8.80092 21.1318 8.58035C21.202 8.35979 21.3235 8.15903 21.4864 7.99457C21.6492 7.83012 21.8488 7.70667 22.0687 7.63438L26.3187 6.3125C27.2562 6.02188 28.1937 6.79688 28.1312 7.79688L27.6937 14.2781C27.5687 15.6031 25.9437 16.1188 25.1624 15.0531Z" fill="url(#paint21_linear_51_261)"/>
<path d="M25.1624 15.0531L21.3499 9.89375C21.2122 9.70771 21.1207 9.49164 21.0827 9.26331C21.0448 9.03498 21.0616 8.80092 21.1318 8.58035C21.202 8.35979 21.3235 8.15903 21.4864 7.99457C21.6492 7.83012 21.8488 7.70667 22.0687 7.63438L26.3187 6.3125C27.2562 6.02188 28.1937 6.79688 28.1312 7.79688L27.6937 14.2781C27.5687 15.6031 25.9437 16.1188 25.1624 15.0531Z" fill="url(#paint22_linear_51_261)"/>
<path d="M14.3469 28.4063L7.87507 29.2469C7.64204 29.2765 7.40529 29.249 7.18528 29.1666C6.96527 29.0843 6.76863 28.9496 6.61233 28.7742C6.45603 28.5989 6.34479 28.3881 6.2882 28.1601C6.23162 27.9321 6.2314 27.6937 6.28757 27.4656L7.35632 22.9875C7.41381 22.76 7.52475 22.5495 7.67992 22.3735C7.83509 22.1975 8.03002 22.061 8.24851 21.9755C8.467 21.8899 8.70276 21.8577 8.93619 21.8815C9.16963 21.9054 9.39401 21.9846 9.5907 22.1125L14.9969 25.7438C16.0969 26.525 15.6751 28.2438 14.3469 28.4031V28.4063Z" fill="#1A80EA"/>
<path d="M14.3469 28.4063L7.87507 29.2469C7.64204 29.2765 7.40529 29.249 7.18528 29.1666C6.96527 29.0843 6.76863 28.9496 6.61233 28.7742C6.45603 28.5989 6.34479 28.3881 6.2882 28.1601C6.23162 27.9321 6.2314 27.6937 6.28757 27.4656L7.35632 22.9875C7.41381 22.76 7.52475 22.5495 7.67992 22.3735C7.83509 22.1975 8.03002 22.061 8.24851 21.9755C8.467 21.8899 8.70276 21.8577 8.93619 21.8815C9.16963 21.9054 9.39401 21.9846 9.5907 22.1125L14.9969 25.7438C16.0969 26.525 15.6751 28.2438 14.3469 28.4031V28.4063Z" fill="url(#paint23_linear_51_261)"/>
<path d="M14.3469 28.4063L7.87507 29.2469C7.64204 29.2765 7.40529 29.249 7.18528 29.1666C6.96527 29.0843 6.76863 28.9496 6.61233 28.7742C6.45603 28.5989 6.34479 28.3881 6.2882 28.1601C6.23162 27.9321 6.2314 27.6937 6.28757 27.4656L7.35632 22.9875C7.41381 22.76 7.52475 22.5495 7.67992 22.3735C7.83509 22.1975 8.03002 22.061 8.24851 21.9755C8.467 21.8899 8.70276 21.8577 8.93619 21.8815C9.16963 21.9054 9.39401 21.9846 9.5907 22.1125L14.9969 25.7438C16.0969 26.525 15.6751 28.2438 14.3469 28.4031V28.4063Z" fill="url(#paint24_linear_51_261)"/>
<path d="M14.3469 28.4063L7.87507 29.2469C7.64204 29.2765 7.40529 29.249 7.18528 29.1666C6.96527 29.0843 6.76863 28.9496 6.61233 28.7742C6.45603 28.5989 6.34479 28.3881 6.2882 28.1601C6.23162 27.9321 6.2314 27.6937 6.28757 27.4656L7.35632 22.9875C7.41381 22.76 7.52475 22.5495 7.67992 22.3735C7.83509 22.1975 8.03002 22.061 8.24851 21.9755C8.467 21.8899 8.70276 21.8577 8.93619 21.8815C9.16963 21.9054 9.39401 21.9846 9.5907 22.1125L14.9969 25.7438C16.0969 26.525 15.6751 28.2438 14.3469 28.4031V28.4063Z" fill="url(#paint25_linear_51_261)"/>
<path d="M41.7939 43.7063C41.6586 43.6513 41.5221 43.5992 41.3846 43.55C40.8937 42.6166 40.3968 41.6864 39.8939 40.7594C39.768 40.5247 39.6614 40.2801 39.5752 40.0281C40.6158 40.0156 41.8658 40.3625 42.9721 40.8094C44.309 41.3407 45.5495 42.0881 46.6439 43.0219C47.2752 43.5844 47.9408 44.4969 48.5658 45.45C49.2158 46.4438 49.9127 47.6281 50.6064 48.8375C51.0283 49.5719 51.4471 50.3125 51.8533 51.0313C52.6737 52.5278 53.5355 54.0013 54.4377 55.45C54.5491 55.6224 54.6255 55.815 54.6625 56.0169C54.6994 56.2187 54.6963 56.4259 54.6532 56.6266C54.6101 56.8272 54.5279 57.0175 54.4113 57.1864C54.2947 57.3552 54.146 57.4995 53.9736 57.6109C53.8013 57.7224 53.6087 57.7987 53.4068 57.8357C53.2049 57.8727 52.9977 57.8696 52.7971 57.8265C52.5964 57.7834 52.4062 57.7012 52.2373 57.5846C52.0684 57.468 51.9241 57.3192 51.8127 57.1469C51.0252 55.9281 50.0533 54.2031 49.0721 52.4594C48.683 51.7683 48.2914 51.0787 47.8971 50.3906C47.2096 49.1938 46.5471 48.075 45.9502 47.1625C45.3252 46.2094 44.8564 45.6156 44.5689 45.3563C43.7391 44.66 42.802 44.1028 41.7939 43.7063Z" fill="url(#paint26_radial_51_261)"/>
<path d="M46.5282 31.2188C46.1198 31.138 45.7039 31.1013 45.2876 31.1094C45.8626 31.0656 46.2813 31.1406 46.5282 31.2188Z" fill="url(#paint27_radial_51_261)"/>
<path d="M50.5502 33.2688C49.463 32.2742 48.1365 31.5786 46.7002 31.25C45.9048 30.3366 45.4277 29.1894 45.3408 27.9813C47.2096 27.9625 50.0158 28.6156 52.6252 30.9344C53.2689 31.5063 54.0846 32.65 54.8908 33.8719C55.7408 35.1656 56.7127 36.7531 57.6846 38.3719C58.4096 39.5813 59.1283 40.8031 59.8002 41.9438C60.9564 43.9031 61.9721 45.6313 62.6408 46.6625C62.7522 46.8349 62.8286 47.0275 62.8656 47.2294C62.9026 47.4312 62.8994 47.6384 62.8563 47.8391C62.8132 48.0397 62.731 48.23 62.6144 48.3989C62.4978 48.5677 62.3491 48.712 62.1768 48.8234C62.0044 48.9349 61.8118 49.0112 61.6099 49.0482C61.408 49.0852 61.2008 49.082 61.0002 49.039C60.7995 48.9959 60.6093 48.9137 60.4404 48.7971C60.2715 48.6805 60.1272 48.5317 60.0158 48.3594C58.9995 46.7329 58.0098 45.09 57.0471 43.4313C56.3846 42.3031 55.6877 41.1188 55.0033 39.9781C54.126 38.4983 53.2185 37.0365 52.2814 35.5938C51.4252 34.2938 50.8283 33.5188 50.5502 33.2688Z" fill="url(#paint28_radial_51_261)"/>
<path d="M58.7031 25.5719L58.7406 25.6375L62.6875 31.9813C65.0978 35.8656 67.528 39.7375 69.9781 43.5969C70.0895 43.7692 70.2338 43.918 70.4027 44.0346C70.5716 44.1512 70.7618 44.2334 70.9625 44.2765C71.1631 44.3196 71.3703 44.3227 71.5722 44.2857C71.7741 44.2487 71.9667 44.1724 72.1391 44.0609C72.3114 43.9495 72.4601 43.8053 72.5767 43.6364C72.6934 43.4675 72.7755 43.2772 72.8186 43.0766C72.8617 42.8759 72.8649 42.6687 72.8279 42.4669C72.7909 42.265 72.7145 42.0724 72.6031 41.9C70.1615 38.0548 67.7406 34.1964 65.3406 30.325C63.8563 27.9469 62.4406 25.6688 61.3969 23.9875L60.3344 22.275C59.5329 23.2265 58.9733 24.3575 58.7031 25.5719Z" fill="url(#paint29_linear_51_261)"/>
<g filter="url(#filter2_f_51_261)">
<path d="M45.5093 34.0813C46.8437 34.1781 47.9593 34.3844 49.5218 36.8063C51.0843 39.2281 56.0968 47.45 58.703 51.5531" stroke="#FFE240" stroke-linecap="round" stroke-linejoin="round"/>
</g>
<g filter="url(#filter3_f_51_261)">
<path d="M40.3315 46.0938C41.6659 46.1906 42.7847 46.3969 44.3472 48.8187C45.9097 51.2406 48.7628 56.8375 51.3659 60.9375" stroke="#FFE240" stroke-linecap="round" stroke-linejoin="round"/>
</g>
<g filter="url(#filter4_f_51_261)">
<path d="M43.75 39.1594C45.0844 39.2563 46.5937 39.8125 48.1562 42.2344C49.7187 44.6563 53.0625 51.4656 55.6625 55.5656" stroke="url(#paint30_linear_51_261)" stroke-width="2" stroke-linecap="round" stroke-linejoin="round"/>
</g>
<g filter="url(#filter5_f_51_261)">
<path d="M49.2188 27.5406C50.5531 27.6344 53.7219 28.6344 55.2844 31.0531C56.8469 33.475 61.2625 41.9906 63.8687 46.0937" stroke="url(#paint31_linear_51_261)" stroke-width="2" stroke-linecap="round" stroke-linejoin="round"/>
</g>
<g filter="url(#filter6_f_51_261)">
<path d="M52.4312 24.3219C53.7655 24.4187 54.8843 24.625 56.4468 27.0469C58.0093 29.4687 66.6343 42.4812 69.2374 46.5812" stroke="#FFE240" stroke-linecap="round" stroke-linejoin="round"/>
</g>
<g filter="url(#filter7_f_51_261)">
<path d="M64.1343 23.5938C65.4687 23.6938 66.5843 23.8969 68.1468 26.3187C69.7093 28.7406 78.4343 44.9719 81.0374 49.0719" stroke="#FFE240" stroke-linecap="round" stroke-linejoin="round"/>
</g>
<g filter="url(#filter8_f_51_261)">
<path d="M88.5815 37.0063C89.6909 37.7563 90.5565 38.4906 90.7065 41.3688C90.8503 44.2469 90.319 62.6656 90.5315 67.5188" stroke="#FFE240" stroke-linecap="round" stroke-linejoin="round"/>
</g>
</g>
</g>
<defs>
<filter id="filter0_f_51_261" x="26.4077" y="26.8656" width="48.9438" height="65.973" filterUnits="userSpaceOnUse" color-interpolation-filters="sRGB">
<feFlood flood-opacity="0" result="BackgroundImageFix"/>
<feBlend mode="normal" in="SourceGraphic" in2="BackgroundImageFix" result="shape"/>
<feGaussianBlur stdDeviation="1.25" result="effect1_foregroundBlur_51_261"/>
</filter>
<filter id="filter1_f_51_261" x="36.021" y="21.8771" width="57.8003" height="70.5654" filterUnits="userSpaceOnUse" color-interpolation-filters="sRGB">
<feFlood flood-opacity="0" result="BackgroundImageFix"/>
<feBlend mode="normal" in="SourceGraphic" in2="BackgroundImageFix" result="shape"/>
<feGaussianBlur stdDeviation="0.5" result="effect1_foregroundBlur_51_261"/>
</filter>
<filter id="filter2_f_51_261" x="44.0093" y="32.5812" width="16.1938" height="20.472" filterUnits="userSpaceOnUse" color-interpolation-filters="sRGB">
<feFlood flood-opacity="0" result="BackgroundImageFix"/>
<feBlend mode="normal" in="SourceGraphic" in2="BackgroundImageFix" result="shape"/>
<feGaussianBlur stdDeviation="0.5" result="effect1_foregroundBlur_51_261"/>
</filter>
<filter id="filter3_f_51_261" x="38.8315" y="44.5937" width="14.0347" height="17.8438" filterUnits="userSpaceOnUse" color-interpolation-filters="sRGB">
<feFlood flood-opacity="0" result="BackgroundImageFix"/>
<feBlend mode="normal" in="SourceGraphic" in2="BackgroundImageFix" result="shape"/>
<feGaussianBlur stdDeviation="0.5" result="effect1_foregroundBlur_51_261"/>
</filter>
<filter id="filter4_f_51_261" x="42.25" y="37.6593" width="14.9126" height="19.4064" filterUnits="userSpaceOnUse" color-interpolation-filters="sRGB">
<feFlood flood-opacity="0" result="BackgroundImageFix"/>
<feBlend mode="normal" in="SourceGraphic" in2="BackgroundImageFix" result="shape"/>
<feGaussianBlur stdDeviation="0.25" result="effect1_foregroundBlur_51_261"/>
</filter>
<filter id="filter5_f_51_261" x="47.7188" y="26.0406" width="17.6499" height="21.5533" filterUnits="userSpaceOnUse" color-interpolation-filters="sRGB">
<feFlood flood-opacity="0" result="BackgroundImageFix"/>
<feBlend mode="normal" in="SourceGraphic" in2="BackgroundImageFix" result="shape"/>
<feGaussianBlur stdDeviation="0.25" result="effect1_foregroundBlur_51_261"/>
</filter>
<filter id="filter6_f_51_261" x="50.9312" y="22.8219" width="19.8062" height="25.2595" filterUnits="userSpaceOnUse" color-interpolation-filters="sRGB">
<feFlood flood-opacity="0" result="BackgroundImageFix"/>
<feBlend mode="normal" in="SourceGraphic" in2="BackgroundImageFix" result="shape"/>
<feGaussianBlur stdDeviation="0.5" result="effect1_foregroundBlur_51_261"/>
</filter>
<filter id="filter7_f_51_261" x="62.6343" y="22.0937" width="19.9033" height="28.4782" filterUnits="userSpaceOnUse" color-interpolation-filters="sRGB">
<feFlood flood-opacity="0" result="BackgroundImageFix"/>
<feBlend mode="normal" in="SourceGraphic" in2="BackgroundImageFix" result="shape"/>
<feGaussianBlur stdDeviation="0.5" result="effect1_foregroundBlur_51_261"/>
</filter>
<filter id="filter8_f_51_261" x="87.0815" y="35.5062" width="5.1499" height="33.5126" filterUnits="userSpaceOnUse" color-interpolation-filters="sRGB">
<feFlood flood-opacity="0" result="BackgroundImageFix"/>
<feBlend mode="normal" in="SourceGraphic" in2="BackgroundImageFix" result="shape"/>
<feGaussianBlur stdDeviation="0.5" result="effect1_foregroundBlur_51_261"/>
</filter>
<linearGradient id="paint0_linear_51_261" x1="66.603" y1="91.7969" x2="42.578" y2="48.4375" gradientUnits="userSpaceOnUse">
<stop stop-color="#FF6C4C"/>
<stop offset="1" stop-color="#FF6D47" stop-opacity="0"/>
</linearGradient>
<radialGradient id="paint1_radial_51_261" cx="0" cy="0" r="1" gradientUnits="userSpaceOnUse" gradientTransform="translate(32.7155 40.0375) rotate(58.4429) scale(14.5547 5.81829)">
<stop stop-color="#FFAF33"/>
<stop offset="1" stop-color="#FA8221"/>
</radialGradient>
<radialGradient id="paint2_radial_51_261" cx="0" cy="0" r="1" gradientUnits="userSpaceOnUse" gradientTransform="translate(29.1999 35.3531) rotate(92.0826) scale(5.37464 5.34659)">
<stop stop-color="#FFAE28"/>
<stop offset="1" stop-color="#FFAF31" stop-opacity="0"/>
</radialGradient>
<radialGradient id="paint3_radial_51_261" cx="0" cy="0" r="1" gradientUnits="userSpaceOnUse" gradientTransform="translate(25.3909 50.6811) rotate(57.331) scale(15.1971 4.35322)">
<stop stop-color="#FE9E29"/>
<stop offset="1" stop-color="#FE9E28" stop-opacity="0"/>
</radialGradient>
<radialGradient id="paint4_radial_51_261" cx="0" cy="0" r="1" gradientUnits="userSpaceOnUse" gradientTransform="translate(24.4155 49.025) rotate(63.4349) scale(6.33261 5.17717)">
<stop stop-color="#FF9D25"/>
<stop offset="1" stop-color="#FF9F24" stop-opacity="0"/>
</radialGradient>
<radialGradient id="paint5_radial_51_261" cx="0" cy="0" r="1" gradientUnits="userSpaceOnUse" gradientTransform="translate(36.8155 27.4406) rotate(58.3392) scale(13.7678 5.95016)">
<stop stop-color="#FFC133"/>
<stop offset="1" stop-color="#FFC93C" stop-opacity="0"/>
</radialGradient>
<radialGradient id="paint6_radial_51_261" cx="0" cy="0" r="1" gradientUnits="userSpaceOnUse" gradientTransform="translate(36.2312 24.9031) rotate(52.3738) scale(5.91848 4.52289)">
<stop stop-color="#FFC53A"/>
<stop offset="1" stop-color="#FFC83C" stop-opacity="0"/>
</radialGradient>
<radialGradient id="paint7_radial_51_261" cx="0" cy="0" r="1" gradientUnits="userSpaceOnUse" gradientTransform="translate(47.4624 34.7656) rotate(90.6384) scale(116.023 100.335)">
<stop offset="0.37" stop-color="#FF6C5E" stop-opacity="0"/>
<stop offset="0.54" stop-color="#FF6B5E"/>
</radialGradient>
<radialGradient id="paint8_radial_51_261" cx="0" cy="0" r="1" gradientUnits="userSpaceOnUse" gradientTransform="translate(47.1655 22.3625) rotate(59.816) scale(11.0714 12.1748)">
<stop stop-color="#FFAC31"/>
<stop offset="1" stop-color="#FFA92E" stop-opacity="0"/>
</radialGradient>
<radialGradient id="paint9_radial_51_261" cx="0" cy="0" r="1" gradientUnits="userSpaceOnUse" gradientTransform="translate(29.003 52.15) rotate(-35.0958) scale(4.41618 13.5484)">
<stop stop-color="#DB5703"/>
<stop offset="0.595" stop-color="#C94A04"/>
<stop offset="1" stop-color="#D65A05" stop-opacity="0"/>
</radialGradient>
<radialGradient id="paint10_radial_51_261" cx="0" cy="0" r="1" gradientUnits="userSpaceOnUse" gradientTransform="translate(33.3 42.675) rotate(-42.6141) scale(6.63488 21.293)">
<stop stop-color="#DB5703"/>
<stop offset="0.595" stop-color="#C94A04"/>
<stop offset="1" stop-color="#D65A05" stop-opacity="0"/>
</radialGradient>
<radialGradient id="paint11_radial_51_261" cx="0" cy="0" r="1" gradientUnits="userSpaceOnUse" gradientTransform="translate(43.7501 35.8406) rotate(-42.1844) scale(4.21735 13.8463)">
<stop stop-color="#DB5703"/>
<stop offset="0.595" stop-color="#C94A04"/>
<stop offset="1" stop-color="#D65A05" stop-opacity="0"/>
</radialGradient>
<radialGradient id="paint12_radial_51_261" cx="0" cy="0" r="1" gradientUnits="userSpaceOnUse" gradientTransform="translate(70.5095 62.8906) rotate(73.365) scale(33.4303 22.1897)">
<stop stop-color="#FFD945"/>
<stop offset="0.633" stop-color="#FFD343"/>
<stop offset="1" stop-color="#FFD543" stop-opacity="0"/>
</radialGradient>
<radialGradient id="paint13_radial_51_261" cx="0" cy="0" r="1" gradientUnits="userSpaceOnUse" gradientTransform="translate(93.6657 49.4156) rotate(98.436) scale(46.0056 12.1494)">
<stop stop-color="#FFE044"/>
<stop offset="1" stop-color="#FFE143" stop-opacity="0"/>
</radialGradient>
<radialGradient id="paint14_radial_51_261" cx="0" cy="0" r="1" gradientUnits="userSpaceOnUse" gradientTransform="translate(64.6511 103.905) rotate(-124.618) scale(73.5725 57.9028)">
<stop stop-color="#FA825D"/>
<stop offset="0.883" stop-color="#F67B7D" stop-opacity="0"/>
</radialGradient>
<linearGradient id="paint15_linear_51_261" x1="80.0783" y1="41.7906" x2="86.4752" y2="41.3562" gradientUnits="userSpaceOnUse">
<stop stop-color="#D48820"/>
<stop offset="0.345" stop-color="#E39C2A" stop-opacity="0.649"/>
<stop offset="0.735" stop-color="#FFC03C" stop-opacity="0"/>
</linearGradient>
<radialGradient id="paint16_radial_51_261" cx="0" cy="0" r="1" gradientUnits="userSpaceOnUse" gradientTransform="translate(76.7591 63.867) rotate(134.506) scale(32.0419 83.8337)">
<stop stop-color="#FFDB45"/>
<stop offset="0.484" stop-color="#FFD646"/>
<stop offset="0.915" stop-color="#FFDA45" stop-opacity="0"/>
<stop offset="0.97" stop-color="#FFDA45" stop-opacity="0"/>
</radialGradient>
<linearGradient id="paint17_linear_51_261" x1="12.1597" y1="14.2094" x2="13.8847" y2="15.8281" gradientUnits="userSpaceOnUse">
<stop stop-color="#2065A3"/>
<stop offset="1" stop-color="#2067AE" stop-opacity="0"/>
</linearGradient>
<linearGradient id="paint18_linear_51_261" x1="14.3816" y1="20.5812" x2="15.3441" y2="18.35" gradientUnits="userSpaceOnUse">
<stop offset="0.605" stop-color="#1C60FF"/>
<stop offset="1" stop-color="#1963FF" stop-opacity="0"/>
</linearGradient>
<linearGradient id="paint19_linear_51_261" x1="18.0191" y1="14.3062" x2="16.7566" y2="14.9719" gradientUnits="userSpaceOnUse">
<stop stop-color="#2093F1"/>
<stop offset="1" stop-color="#2294F3" stop-opacity="0"/>
</linearGradient>
<linearGradient id="paint20_linear_51_261" x1="23.9749" y1="5.90938" x2="24.7937" y2="8.60938" gradientUnits="userSpaceOnUse">
<stop stop-color="#2065A3"/>
<stop offset="1" stop-color="#2067AE" stop-opacity="0"/>
</linearGradient>
<linearGradient id="paint21_linear_51_261" x1="23.0468" y1="14.3313" x2="24.7468" y2="13.0875" gradientUnits="userSpaceOnUse">
<stop offset="0.605" stop-color="#1C60FF"/>
<stop offset="1" stop-color="#1963FF" stop-opacity="0"/>
</linearGradient>
<linearGradient id="paint22_linear_51_261" x1="27.9312" y1="9.52188" x2="27.0718" y2="9.47813" gradientUnits="userSpaceOnUse">
<stop stop-color="#2093F1"/>
<stop offset="1" stop-color="#2294F3" stop-opacity="0"/>
</linearGradient>
<linearGradient id="paint23_linear_51_261" x1="6.25007" y1="25.5656" x2="8.35007" y2="26.075" gradientUnits="userSpaceOnUse">
<stop stop-color="#2065A3"/>
<stop offset="1" stop-color="#2067AE" stop-opacity="0"/>
</linearGradient>
<linearGradient id="paint24_linear_51_261" x1="10.9376" y1="30.4188" x2="10.7438" y2="27.9313" gradientUnits="userSpaceOnUse">
<stop offset="0.605" stop-color="#1C60FF"/>
<stop offset="1" stop-color="#1963FF" stop-opacity="0"/>
</linearGradient>
<linearGradient id="paint25_linear_51_261" x1="12.2188" y1="23.425" x2="11.3157" y2="24.7438" gradientUnits="userSpaceOnUse">
<stop stop-color="#2093F1"/>
<stop offset="1" stop-color="#2294F3" stop-opacity="0"/>
</linearGradient>
<radialGradient id="paint26_radial_51_261" cx="0" cy="0" r="1" gradientUnits="userSpaceOnUse" gradientTransform="translate(45.8033 48.9438) rotate(57.126) scale(16.3724 3.06701)">
<stop stop-color="#B64200"/>
<stop offset="1" stop-color="#FFB02E" stop-opacity="0"/>
</radialGradient>
<radialGradient id="paint27_radial_51_261" cx="0" cy="0" r="1" gradientUnits="userSpaceOnUse" gradientTransform="translate(52.5385 38.5268) rotate(57.5209) scale(19.2776 3.58843)">
<stop stop-color="#B64200"/>
<stop offset="1" stop-color="#FFB02E" stop-opacity="0"/>
</radialGradient>
<radialGradient id="paint28_radial_51_261" cx="0" cy="0" r="1" gradientUnits="userSpaceOnUse" gradientTransform="translate(52.5386 38.5268) rotate(57.521) scale(19.2777 3.58844)">
<stop stop-color="#B64200"/>
<stop offset="1" stop-color="#FFB02E" stop-opacity="0"/>
</radialGradient>
<linearGradient id="paint29_linear_51_261" x1="63.0875" y1="32.6188" x2="65.7781" y2="31.0563" gradientUnits="userSpaceOnUse">
<stop stop-color="#E49224"/>
<stop offset="0.589" stop-color="#FFB02E" stop-opacity="0"/>
</linearGradient>
<linearGradient id="paint30_linear_51_261" x1="45.0188" y1="45.9" x2="50.9781" y2="42.4813" gradientUnits="userSpaceOnUse">
<stop stop-color="#FDB137"/>
<stop offset="0.447" stop-color="#FFBA3C" stop-opacity="0"/>
<stop offset="1" stop-color="#FCAD33" stop-opacity="0"/>
</linearGradient>
<linearGradient id="paint31_linear_51_261" x1="52.15" y1="34.7187" x2="58.1062" y2="31.3031" gradientUnits="userSpaceOnUse">
<stop stop-color="#FDB137"/>
<stop offset="0.447" stop-color="#FFBA3C" stop-opacity="0"/>
<stop offset="1" stop-color="#FCAD33" stop-opacity="0"/>
</linearGradient>
<clipPath id="clip0_51_261">
<rect width="100" height="100" fill="white"/>
</clipPath>
</defs>
</svg>
