<svg width="16" height="16" viewBox="0 0 16 16" fill="none" xmlns="http://www.w3.org/2000/svg">
<g id="ph:brain">
<path id="Vector" d="M15.5 7.75C15.4993 7.08771 15.3111 6.43914 14.9572 5.87935C14.6032 5.31957 14.098 4.87146 13.5 4.58688V4.5C13.4994 3.85576 13.2915 3.22882 12.9069 2.71195C12.5223 2.19507 11.9816 1.81572 11.3647 1.63002C10.7478 1.44432 10.0875 1.46214 9.48156 1.68084C8.87558 1.89954 8.3561 2.30751 7.99998 2.84438C7.64386 2.30751 7.12438 1.89954 6.5184 1.68084C5.91242 1.46214 5.25214 1.44432 4.63524 1.63002C4.01835 1.81572 3.47762 2.19507 3.09306 2.71195C2.70851 3.22882 2.50056 3.85576 2.49998 4.5V4.58688C1.90144 4.87068 1.39573 5.31851 1.04161 5.87833C0.687493 6.43814 0.499512 7.08696 0.499512 7.74937C0.499512 8.41179 0.687493 9.06061 1.04161 9.62042C1.39573 10.1802 1.90144 10.6281 2.49998 10.9119V11C2.50056 11.6442 2.70851 12.2712 3.09306 12.7881C3.47762 13.3049 4.01835 13.6843 4.63524 13.87C5.25214 14.0557 5.91242 14.0379 6.5184 13.8192C7.12438 13.6005 7.64386 13.1925 7.99998 12.6556C8.3561 13.1925 8.87558 13.6005 9.48156 13.8192C10.0875 14.0379 10.7478 14.0557 11.3647 13.87C11.9816 13.6843 12.5223 13.3049 12.9069 12.7881C13.2915 12.2712 13.4994 11.6442 13.5 11V10.9119C14.0979 10.6275 14.6031 10.1796 14.957 9.62005C15.311 9.06048 15.4992 8.41211 15.5 7.75ZM5.49998 13C5.00682 12.9999 4.53108 12.8177 4.16412 12.4882C3.79716 12.1587 3.56487 11.7053 3.51186 11.215C3.67354 11.2381 3.83665 11.2498 3.99998 11.25H4.49998C4.63259 11.25 4.75977 11.1973 4.85353 11.1036C4.9473 11.0098 4.99998 10.8826 4.99998 10.75C4.99998 10.6174 4.9473 10.4902 4.85353 10.3964C4.75977 10.3027 4.63259 10.25 4.49998 10.25H3.99998C3.40971 10.2507 2.83822 10.0425 2.38672 9.66228C1.93521 9.28206 1.6328 8.75434 1.53303 8.17256C1.43326 7.59078 1.54256 6.99246 1.84159 6.48353C2.14062 5.9746 2.61008 5.58789 3.16686 5.39188C3.26428 5.35738 3.34861 5.29355 3.40827 5.20916C3.46792 5.12477 3.49996 5.02397 3.49998 4.92063V4.5C3.49998 3.96957 3.71069 3.46086 4.08577 3.08579C4.46084 2.71071 4.96955 2.5 5.49998 2.5C6.03041 2.5 6.53912 2.71071 6.91419 3.08579C7.28927 3.46086 7.49998 3.96957 7.49998 4.5V8.76625C6.95093 8.27243 6.23844 7.99946 5.49998 8C5.36737 8 5.2402 8.05268 5.14643 8.14645C5.05266 8.24021 4.99998 8.36739 4.99998 8.5C4.99998 8.63261 5.05266 8.75979 5.14643 8.85355C5.2402 8.94732 5.36737 9 5.49998 9C6.03041 9 6.53912 9.21071 6.91419 9.58579C7.28927 9.96086 7.49998 10.4696 7.49998 11C7.49998 11.5304 7.28927 12.0391 6.91419 12.4142C6.53912 12.7893 6.03041 13 5.49998 13ZM12 10.25H11.5C11.3674 10.25 11.2402 10.3027 11.1464 10.3964C11.0527 10.4902 11 10.6174 11 10.75C11 10.8826 11.0527 11.0098 11.1464 11.1036C11.2402 11.1973 11.3674 11.25 11.5 11.25H12C12.1633 11.2498 12.3264 11.2381 12.4881 11.215C12.4466 11.5992 12.2946 11.9631 12.0507 12.2627C11.8067 12.5624 11.4812 12.7849 11.1134 12.9035C10.7456 13.0221 10.3514 13.0316 9.97835 12.9309C9.6053 12.8301 9.26942 12.6235 9.01131 12.3359C8.75321 12.0484 8.58393 11.6922 8.52394 11.3105C8.46396 10.9288 8.51583 10.5378 8.6733 10.185C8.83077 9.8321 9.08708 9.53241 9.41125 9.32212C9.73543 9.11183 10.1136 8.99994 10.5 9C10.6326 9 10.7598 8.94732 10.8535 8.85355C10.9473 8.75979 11 8.63261 11 8.5C11 8.36739 10.9473 8.24021 10.8535 8.14645C10.7598 8.05268 10.6326 8 10.5 8C9.76153 7.99946 9.04903 8.27243 8.49998 8.76625V4.5C8.49998 3.96957 8.7107 3.46086 9.08577 3.08579C9.46084 2.71071 9.96955 2.5 10.5 2.5C11.0304 2.5 11.5391 2.71071 11.9142 3.08579C12.2893 3.46086 12.5 3.96957 12.5 4.5V4.92063C12.5 5.02397 12.532 5.12477 12.5917 5.20916C12.6513 5.29355 12.7357 5.35738 12.8331 5.39188C13.3899 5.58789 13.8593 5.9746 14.1584 6.48353C14.4574 6.99246 14.5667 7.59078 14.4669 8.17256C14.3672 8.75434 14.0648 9.28206 13.6132 9.66228C13.1617 10.0425 12.5903 10.2507 12 10.25ZM13 7C13 7.13261 12.9473 7.25979 12.8535 7.35355C12.7598 7.44732 12.6326 7.5 12.5 7.5H12.25C11.6532 7.5 11.0809 7.26295 10.659 6.84099C10.237 6.41903 9.99998 5.84674 9.99998 5.25V5C9.99998 4.86739 10.0527 4.74022 10.1464 4.64645C10.2402 4.55268 10.3674 4.5 10.5 4.5C10.6326 4.5 10.7598 4.55268 10.8535 4.64645C10.9473 4.74022 11 4.86739 11 5V5.25C11 5.58152 11.1317 5.89946 11.3661 6.13388C11.6005 6.3683 11.9185 6.5 12.25 6.5H12.5C12.6326 6.5 12.7598 6.55268 12.8535 6.64645C12.9473 6.74021 13 6.86739 13 7ZM3.74998 7.5H3.49998C3.36737 7.5 3.2402 7.44732 3.14643 7.35355C3.05266 7.25979 2.99998 7.13261 2.99998 7C2.99998 6.86739 3.05266 6.74021 3.14643 6.64645C3.2402 6.55268 3.36737 6.5 3.49998 6.5H3.74998C4.0815 6.5 4.39944 6.3683 4.63386 6.13388C4.86828 5.89946 4.99998 5.58152 4.99998 5.25V5C4.99998 4.86739 5.05266 4.74022 5.14643 4.64645C5.2402 4.55268 5.36737 4.5 5.49998 4.5C5.63259 4.5 5.75977 4.55268 5.85353 4.64645C5.9473 4.74022 5.99998 4.86739 5.99998 5V5.25C5.99998 5.84674 5.76293 6.41903 5.34097 6.84099C4.91901 7.26295 4.34672 7.5 3.74998 7.5Z" fill="black"/>
</g>
</svg>
