<svg width="24" height="25" viewBox="0 0 24 25" fill="none" xmlns="http://www.w3.org/2000/svg">
<g clip-path="url(#clip0_51_478)">
<path fill-rule="evenodd" clip-rule="evenodd" d="M12 5.5C10.6583 5.50034 9.34498 5.88626 8.21639 6.61181C7.0878 7.33736 6.1915 8.37197 5.63421 9.59244C5.07692 10.8129 4.88212 12.1678 5.073 13.4959C5.26389 14.8239 5.83241 16.0691 6.71088 17.0833C7.58936 18.0974 8.74077 18.8376 10.028 19.216C11.3153 19.5943 12.6841 19.5947 13.9716 19.2171C15.2591 18.8396 16.4109 18.1 17.29 17.0864C18.1691 16.0728 18.7383 14.8279 18.93 13.5H13C12.7348 13.5 12.4804 13.3946 12.2929 13.2071C12.1054 13.0196 12 12.7652 12 12.5C12 12.2348 12.1054 11.9804 12.2929 11.7929C12.4804 11.6054 12.7348 11.5 13 11.5H20C20.2652 11.5 20.5196 11.6054 20.7071 11.7929C20.8946 11.9804 21 12.2348 21 12.5C21.0002 14.5811 20.2792 16.598 18.9596 18.2074C17.64 19.8167 15.8035 20.919 13.7627 21.3266C11.7218 21.7342 9.60281 21.4219 7.7663 20.4429C5.9298 19.4639 4.48934 17.8787 3.69012 15.9571C2.89089 14.0356 2.78231 11.8964 3.38286 9.90379C3.9834 7.91118 5.25595 6.18827 6.98388 5.02835C8.71182 3.86843 10.7883 3.34319 12.86 3.54205C14.9316 3.7409 16.8703 4.65156 18.346 6.119C18.5288 6.30707 18.6303 6.55941 18.6288 6.82165C18.6273 7.08389 18.5229 7.33505 18.3379 7.52101C18.153 7.70697 17.9025 7.81285 17.6402 7.81584C17.378 7.81883 17.1251 7.71869 16.936 7.537C16.2874 6.88991 15.5176 6.37696 14.6707 6.02744C13.8237 5.67793 12.9162 5.4987 12 5.5Z" fill="black"/>
</g>
<defs>
<clipPath id="clip0_51_478">
<rect width="24" height="24" fill="white" transform="translate(0 0.5)"/>
</clipPath>
</defs>
</svg>
