<svg width="63" height="29" viewBox="0 0 63 29" fill="none" xmlns="http://www.w3.org/2000/svg">
<path d="M13.8085 27.3406C13.8085 27.7802 12.4897 28 9.85212 28C7.2404 28 5.93455 27.7802 5.93455 27.3406V8.21818L1.74545 8.25697C0.969697 8.25697 0.581818 7.01576 0.581818 4.53333C0.581818 3.68 0.659394 2.85253 0.814545 2.05091C0.995556 1.24929 1.29293 0.848485 1.70667 0.848485H12.3345C12.7741 0.848485 13.1232 0.951919 13.3818 1.15879C13.6663 1.3398 13.8085 1.57253 13.8085 1.85697V27.3406ZM36.9745 16.4024C37.2331 16.4024 37.3624 17.3851 37.3624 19.3503C37.3624 21.2897 37.2331 22.2594 36.9745 22.2594L34.4145 22.2982V27.1855C34.4145 27.4699 33.8844 27.6768 32.8242 27.8061C31.764 27.9354 30.8461 28 30.0703 28L28.48 27.9224C27.1612 27.819 26.5018 27.5863 26.5018 27.2242V22.4145H18.783C18.1107 21.7422 17.503 20.876 16.96 19.8158C16.417 18.7297 16.1455 17.9539 16.1455 17.4885C16.1455 16.9972 16.223 16.6093 16.3782 16.3248L24.8727 1.27515C24.9762 1.06828 25.7648 0.913132 27.2388 0.809697C28.7386 0.706263 30.303 0.654546 31.9321 0.654546C33.5612 0.654546 34.3758 0.719192 34.3758 0.848485L34.4145 16.4024H36.9745ZM27.6267 16.4412V8.33455L23.0885 16.4412H27.6267ZM51.3127 28.3879C48.0804 28.3879 45.4299 27.1984 43.3612 24.8194C41.3184 22.4404 40.297 18.9624 40.297 14.3855C40.297 9.80849 41.3313 6.35636 43.4 4.02909C45.4687 1.67596 48.1321 0.499394 51.3903 0.499394C54.6743 0.499394 57.3248 1.66303 59.3418 3.9903C61.3588 6.31758 62.3673 9.82141 62.3673 14.5018C62.3673 19.1822 61.3329 22.6731 59.2642 24.9745C57.2214 27.2501 54.5709 28.3879 51.3127 28.3879ZM51.3127 7.94667C50.3301 7.94667 49.4897 8.51556 48.7915 9.65333C48.1192 10.7653 47.783 12.3556 47.783 14.4242C47.783 16.4929 48.1063 18.0832 48.7527 19.1952C49.425 20.2812 50.2784 20.8242 51.3127 20.8242C52.3729 20.8242 53.2263 20.2683 53.8727 19.1564C54.545 18.0444 54.8812 16.4541 54.8812 14.3855C54.8812 12.3168 54.5321 10.7265 53.8339 9.61455C53.1616 8.50263 52.3212 7.94667 51.3127 7.94667Z" />
</svg>
