<svg width="100" height="70" viewBox="0 0 100 70" fill="none" xmlns="http://www.w3.org/2000/svg">
<rect width="100" height="70" rx="10" fill="#222222"/>
<path d="M25.3394 52.1242C25.3394 52.7081 23.5879 53 20.0848 53C16.6162 53 14.8818 52.7081 14.8818 52.1242V26.7273L9.31818 26.7788C8.28788 26.7788 7.77273 25.1303 7.77273 21.8333C7.77273 20.7 7.87576 19.601 8.08182 18.5364C8.32222 17.4717 8.71717 16.9394 9.26667 16.9394H23.3818C23.9657 16.9394 24.4293 17.0768 24.7727 17.3515C25.1505 17.5919 25.3394 17.901 25.3394 18.2788V52.1242ZM56.1068 37.597C56.4503 37.597 56.622 38.902 56.622 41.5121C56.622 44.0879 56.4503 45.3758 56.1068 45.3758L52.7068 45.4273V51.9182C52.7068 52.296 52.0028 52.5707 50.5947 52.7424C49.1866 52.9141 47.9674 53 46.9371 53L44.825 52.897C43.0735 52.7596 42.1977 52.4505 42.1977 51.9697V45.5818H31.9462C31.0533 44.6889 30.2462 43.5384 29.525 42.1303C28.8038 40.6879 28.4432 39.6576 28.4432 39.0394C28.4432 38.3869 28.5462 37.8717 28.7523 37.4939L40.0341 17.5061C40.1715 17.2313 41.2189 17.0253 43.1765 16.8879C45.1684 16.7505 47.2462 16.6818 49.4098 16.6818C51.5735 16.6818 52.6553 16.7677 52.6553 16.9394L52.7068 37.597H56.1068ZM43.6917 37.6485V26.8818L37.6644 37.6485H43.6917ZM75.1497 53.5152C70.8568 53.5152 67.3366 51.9354 64.5891 48.7758C61.876 45.6162 60.5194 40.997 60.5194 34.9182C60.5194 28.8394 61.8931 24.2545 64.6406 21.1636C67.3881 18.0384 70.9255 16.4758 75.2527 16.4758C79.6144 16.4758 83.1346 18.0212 85.8133 21.1121C88.4921 24.203 89.8315 28.8566 89.8315 35.0727C89.8315 41.2889 88.4578 45.9253 85.7103 48.9818C82.9972 52.004 79.477 53.5152 75.1497 53.5152ZM75.1497 26.3667C73.8447 26.3667 72.7285 27.1222 71.8012 28.6333C70.9083 30.1101 70.4618 32.2222 70.4618 34.9697C70.4618 37.7172 70.8911 39.8293 71.7497 41.3061C72.6426 42.7485 73.776 43.4697 75.1497 43.4697C76.5578 43.4697 77.6911 42.7313 78.5497 41.2545C79.4426 39.7778 79.8891 37.6657 79.8891 34.9182C79.8891 32.1707 79.4255 30.0586 78.4982 28.5818C77.6053 27.1051 76.4891 26.3667 75.1497 26.3667Z" fill="#00B37D"/>
</svg>
